<svg xmlns="http://www.w3.org/2000/svg" width="168" height="32" role="img" aria-label="github.com score over time"><title>github.com score over time</title><rect width="168" height="32" rx="4" fill="#0d1117"/><polyline points="4.0,6.4 9.3,6.9 14.5,6.6 19.8,6.6 25.0,6.6 30.3,6.6 35.5,6.6 40.8,6.6 46.0,6.9 51.3,6.6 56.5,6.6 61.8,6.9 67.0,6.9 72.3,6.6 77.5,6.6 82.8,6.9 88.0,6.9 93.3,6.6 98.5,6.9 103.8,6.6 109.0,6.6 114.3,6.6 119.5,6.9 124.8,6.9 130.0,6.9" fill="none" stroke="#1f6feb" stroke-width="1.5" stroke-linejoin="round" stroke-linecap="round"/><circle cx="130.0" cy="6.9" r="2" fill="#1f6feb"/><text x="164" y="20" text-anchor="end" font-family="Verdana,Geneva,sans-serif" font-size="11" fill="#8b949e">88</text></svg>
