<svg xmlns="http://www.w3.org/2000/svg" width="168" height="32" role="img" aria-label="news.ycombinator.com score over time"><title>news.ycombinator.com score over time</title><rect width="168" height="32" rx="4" fill="#0d1117"/><polyline points="4.0,6.4 9.0,6.4 14.1,6.4 19.1,6.4 24.2,6.4 29.2,6.4 34.2,6.4 39.3,6.4 44.3,6.4 49.4,6.4 54.4,6.4 59.4,6.4 64.5,6.4 69.5,6.4 74.6,6.4 79.6,6.4 84.6,6.4 89.7,6.4 94.7,6.4 99.8,6.4 104.8,6.4 109.8,6.4 114.9,6.4 119.9,6.4 125.0,6.4 130.0,6.4" fill="none" stroke="#1f6feb" stroke-width="1.5" stroke-linejoin="round" stroke-linecap="round"/><circle cx="130.0" cy="6.4" r="2" fill="#1f6feb"/><text x="164" y="20" text-anchor="end" font-family="Verdana,Geneva,sans-serif" font-size="11" fill="#8b949e">90</text></svg>
