<svg xmlns="http://www.w3.org/2000/svg" width="560" height="260" role="img" aria-label="geolint scores over time"><title>geolint scores over time</title><rect width="560" height="260" rx="6" fill="#0d1117"/><line x1="36" y1="236.0" x2="416" y2="236.0" stroke="#30363d" stroke-width="1"/><text x="31" y="239" text-anchor="end" font-family="Verdana,Geneva,sans-serif" font-size="9" fill="#8b949e">0</text><line x1="36" y1="180.0" x2="416" y2="180.0" stroke="#30363d" stroke-width="1"/><text x="31" y="183" text-anchor="end" font-family="Verdana,Geneva,sans-serif" font-size="9" fill="#8b949e">25</text><line x1="36" y1="124.0" x2="416" y2="124.0" stroke="#30363d" stroke-width="1"/><text x="31" y="127" text-anchor="end" font-family="Verdana,Geneva,sans-serif" font-size="9" fill="#8b949e">50</text><line x1="36" y1="68.0" x2="416" y2="68.0" stroke="#30363d" stroke-width="1"/><text x="31" y="71" text-anchor="end" font-family="Verdana,Geneva,sans-serif" font-size="9" fill="#8b949e">75</text><line x1="36" y1="12.0" x2="416" y2="12.0" stroke="#30363d" stroke-width="1"/><text x="31" y="15" text-anchor="end" font-family="Verdana,Geneva,sans-serif" font-size="9" fill="#8b949e">100</text><polyline points="36.0,34.4 55.0,38.9 74.0,36.6 93.0,36.6 112.0,36.6 131.0,36.6 150.0,36.6 169.0,36.6 188.0,38.9 207.0,36.6 226.0,36.6 245.0,38.9 264.0,38.9 283.0,36.6 302.0,36.6 321.0,38.9 340.0,38.9 359.0,36.6 378.0,38.9 397.0,36.6 416.0,36.6" fill="none" stroke="#1f6feb" stroke-width="1.8" stroke-linejoin="round" stroke-linecap="round"/><circle cx="416.0" cy="36.6" r="2.5" fill="#1f6feb"/><circle cx="432" cy="17" r="3.5" fill="#1f6feb"/><text x="442" y="20" font-family="Verdana,Geneva,sans-serif" font-size="10" fill="#8b949e">github.com</text><polyline points="36.0,29.9 55.0,29.9 74.0,29.9 93.0,29.9 112.0,29.9 131.0,29.9 150.0,29.9 169.0,29.9 188.0,29.9 207.0,29.9 226.0,29.9 245.0,29.9 264.0,29.9 283.0,29.9 302.0,27.7 321.0,27.7 340.0,27.7 359.0,27.7 378.0,27.7 397.0,27.7 416.0,27.7" fill="none" stroke="#e05d44" stroke-width="1.8" stroke-linejoin="round" stroke-linecap="round"/><circle cx="416.0" cy="27.7" r="2.5" fill="#e05d44"/><circle cx="432" cy="35" r="3.5" fill="#e05d44"/><text x="442" y="38" font-family="Verdana,Geneva,sans-serif" font-size="10" fill="#8b949e">anthropic.com</text><polyline points="36.0,50.1 55.0,50.1 74.0,50.1 93.0,50.1 112.0,50.1 131.0,50.1 150.0,50.1 169.0,50.1 188.0,50.1 207.0,50.1 226.0,50.1 245.0,50.1 264.0,50.1 283.0,50.1 302.0,50.1 321.0,50.1 340.0,50.1 359.0,50.1 378.0,50.1 397.0,50.1 416.0,50.1" fill="none" stroke="#4c1" stroke-width="1.8" stroke-linejoin="round" stroke-linecap="round"/><circle cx="416.0" cy="50.1" r="2.5" fill="#4c1"/><circle cx="432" cy="53" r="3.5" fill="#4c1"/><text x="442" y="56" font-family="Verdana,Geneva,sans-serif" font-size="10" fill="#8b949e">openai.com</text><polyline points="36.0,21.0 55.0,21.0 74.0,21.0 93.0,21.0 112.0,21.0 131.0,21.0 150.0,21.0 169.0,21.0 188.0,21.0 207.0,21.0 226.0,21.0 245.0,21.0 264.0,21.0 283.0,21.0 302.0,21.0 321.0,21.0 340.0,21.0 359.0,21.0 378.0,21.0 397.0,21.0 416.0,21.0" fill="none" stroke="#a371f7" stroke-width="1.8" stroke-linejoin="round" stroke-linecap="round"/><circle cx="416.0" cy="21.0" r="2.5" fill="#a371f7"/><circle cx="432" cy="71" r="3.5" fill="#a371f7"/><text x="442" y="74" font-family="Verdana,Geneva,sans-serif" font-size="10" fill="#8b949e">stripe.com</text><polyline points="36.0,23.2 55.0,23.2 74.0,23.2 93.0,23.2 112.0,23.2 131.0,23.2 150.0,23.2 169.0,23.2 188.0,23.2 207.0,23.2 226.0,23.2 245.0,23.2 264.0,23.2 283.0,23.2 302.0,23.2 321.0,23.2 340.0,23.2 359.0,23.2 378.0,23.2 397.0,23.2 416.0,23.2" fill="none" stroke="#39c5cf" stroke-width="1.8" stroke-linejoin="round" stroke-linecap="round"/><circle cx="416.0" cy="23.2" r="2.5" fill="#39c5cf"/><circle cx="432" cy="89" r="3.5" fill="#39c5cf"/><text x="442" y="92" font-family="Verdana,Geneva,sans-serif" font-size="10" fill="#8b949e">vercel.com</text><polyline points="36.0,34.4 55.0,34.4 74.0,34.4 93.0,34.4 112.0,34.4 131.0,34.4 150.0,34.4 169.0,34.4 188.0,34.4 207.0,34.4 226.0,34.4 245.0,34.4 264.0,34.4 283.0,34.4 302.0,34.4 321.0,34.4 340.0,34.4 359.0,34.4 378.0,34.4 397.0,34.4 416.0,34.4" fill="none" stroke="#fe7d37" stroke-width="1.8" stroke-linejoin="round" stroke-linecap="round"/><circle cx="416.0" cy="34.4" r="2.5" fill="#fe7d37"/><circle cx="432" cy="107" r="3.5" fill="#fe7d37"/><text x="442" y="110" font-family="Verdana,Geneva,sans-serif" font-size="10" fill="#8b949e">news.ycombinator.com</text><polyline points="36.0,43.4 55.0,43.4 74.0,43.4 93.0,43.4 112.0,43.4 131.0,43.4 150.0,43.4 169.0,43.4 188.0,43.4 207.0,43.4 226.0,43.4 245.0,43.4 264.0,43.4 283.0,43.4 302.0,45.6 321.0,45.6 340.0,45.6 359.0,45.6 378.0,45.6 397.0,45.6 416.0,45.6" fill="none" stroke="#f778ba" stroke-width="1.8" stroke-linejoin="round" stroke-linecap="round"/><circle cx="416.0" cy="45.6" r="2.5" fill="#f778ba"/><circle cx="432" cy="125" r="3.5" fill="#f778ba"/><text x="442" y="128" font-family="Verdana,Geneva,sans-serif" font-size="10" fill="#8b949e">example.com</text><polyline points="36.0,54.6 55.0,54.6 74.0,54.6 93.0,54.6 112.0,54.6 131.0,54.6 150.0,54.6 169.0,54.6 188.0,54.6 207.0,54.6 226.0,54.6 245.0,54.6 264.0,54.6 283.0,54.6 302.0,54.6 321.0,54.6 340.0,54.6 359.0,54.6 378.0,54.6 397.0,54.6 416.0,54.6" fill="none" stroke="#dfb317" stroke-width="1.8" stroke-linejoin="round" stroke-linecap="round"/><circle cx="416.0" cy="54.6" r="2.5" fill="#dfb317"/><circle cx="432" cy="143" r="3.5" fill="#dfb317"/><text x="442" y="146" font-family="Verdana,Geneva,sans-serif" font-size="10" fill="#8b949e">perplexity.ai</text></svg>
